<svg width="32" height="32" viewBox="0 0 32 32" fill="none" xmlns="http://www.w3.org/2000/svg">
<path d="M17.697 3C20.097 3 20.604 3.027 21.83 3.08C23.243 3.147 24.217 3.373 25.057 3.707C25.937 4.04 26.684 4.507 27.417 5.24C28.164 5.973 28.617 6.72 28.964 7.6C29.297 8.44 29.511 9.413 29.577 10.84C29.644 12.107 29.657 12.6 29.657 15.267V17.4C29.657 20.067 29.644 20.56 29.577 21.827C29.554 22.992 29.331 24.097 28.941 25.121L28.963 25.054C28.616 25.934 28.163 26.681 27.43 27.414C26.683 28.161 25.937 28.614 25.057 28.961C24.217 29.294 23.244 29.508 21.83 29.574C20.563 29.641 20.057 29.654 17.39 29.654H15.27C12.603 29.654 12.11 29.641 10.83 29.574C9.665 29.551 8.56 29.328 7.536 28.938L7.603 28.96C6.68 28.607 5.893 28.086 5.244 27.427L5.243 27.426C4.577 26.774 4.051 25.982 3.711 25.097L3.696 25.052C3.329 24.096 3.106 22.99 3.083 21.835V21.825C3.03 20.783 3 19.562 3 18.335C3 18.109 3.001 17.883 3.003 17.658V17.692V14.959C3.003 12.559 3.03 12.052 3.083 10.826C3.15 9.413 3.376 8.439 3.696 7.599C4.043 6.719 4.496 5.972 5.243 5.239C5.888 4.572 6.677 4.049 7.56 3.72L7.603 3.706C8.558 3.335 9.663 3.107 10.818 3.08H10.83C12.057 3.027 12.563 3 14.963 3H17.697ZM17.724 5.4H14.937C12.63 5.4 12.137 5.427 10.937 5.48C9.644 5.533 8.937 5.747 8.47 5.933C7.843 6.173 7.403 6.466 6.937 6.933C6.471 7.4 6.177 7.84 5.937 8.466C5.764 8.933 5.537 9.639 5.484 10.946C5.431 12.146 5.404 12.626 5.404 14.946V17.719C5.404 20.039 5.431 20.519 5.484 21.719C5.537 23.012 5.751 23.719 5.937 24.186C6.177 24.813 6.47 25.253 6.937 25.719C7.404 26.185 7.844 26.479 8.47 26.719C8.937 26.906 9.643 27.119 10.95 27.172C12.243 27.239 12.71 27.252 15.59 27.252H17.07C19.963 27.252 20.417 27.239 21.723 27.172C23.016 27.119 23.723 26.905 24.19 26.719C24.817 26.479 25.257 26.186 25.723 25.719C26.189 25.252 26.483 24.812 26.723 24.186C26.91 23.719 27.123 23.013 27.176 21.719C27.243 20.412 27.256 19.959 27.256 17.066V15.599C27.256 12.706 27.243 12.239 27.176 10.932C27.123 9.639 26.909 8.932 26.723 8.465C26.497 7.864 26.156 7.351 25.724 6.933L25.723 6.932C25.303 6.499 24.791 6.158 24.218 5.941L24.19 5.932C23.458 5.656 22.612 5.491 21.728 5.479H21.723C20.695 5.427 19.492 5.397 18.281 5.397C18.085 5.397 17.889 5.398 17.693 5.399H17.723L17.724 5.4ZM16.337 9.48C20.118 9.48 23.184 12.545 23.184 16.327C23.184 20.109 20.119 23.174 16.337 23.174C12.556 23.174 9.49 20.109 9.49 16.327C9.49 12.545 12.555 9.48 16.337 9.48ZM16.337 11.88C13.881 11.88 11.89 13.871 11.89 16.327C11.89 18.783 13.881 20.774 16.337 20.774C18.793 20.774 20.784 18.783 20.784 16.327C20.784 13.871 18.793 11.88 16.337 11.88ZM23.444 7.613C24.328 7.613 25.044 8.329 25.044 9.213C25.044 10.097 24.328 10.813 23.444 10.813C22.56 10.813 21.844 10.097 21.844 9.213C21.844 8.329 22.56 7.613 23.444 7.613Z" fill="black"/>
</svg>
